<svg xmlns="http://www.w3.org/2000/svg" width="24" height="24" viewBox="0 0 24 24" fill="currentColor">
  <path d="M16 4c0-1.11.89-2 2-2s2 .89 2 2-.89 2-2 2-2-.89-2-2zm4 18v-6h2.5l-2.54-7.63A1.5 1.5 0 0 0 18.54 7c-.8 0-1.54.5-1.85 1.26l-1.92 5.75A2 2 0 0 0 16.65 16H20v6h4zM12.5 11.5c.83 0 1.5-.67 1.5-1.5s-.67-1.5-1.5-1.5S11 9.17 11 10s.67 1.5 1.5 1.5zM5.5 6c1.11 0 2-.89 2-2s-.89-2-2-2-2 .89-2 2 .89 2 2 2zm2 16v-7H9l-1.4-4.2A1.5 1.5 0 0 0 6.14 9.8c-.8 0-1.54.5-1.85 1.26l-1.92 5.75A2 2 0 0 0 4.25 18H7.5v4h2zm8.5-12.5c.83 0 1.5-.67 1.5-1.5s-.67-1.5-1.5-1.5S15 7.17 15 8s.67 1.5 1.5 1.5z"/>
</svg>